<?xml version="1.0" encoding="utf-8"?>
<!-- Generator: Adobe Illustrator 18.0.0, SVG Export Plug-In . SVG Version: 6.00 Build 0)  -->
<!DOCTYPE svg PUBLIC "-//W3C//DTD SVG 1.1//EN" "http://www.w3.org/Graphics/SVG/1.1/DTD/svg11.dtd">
<svg version="1.1" id="_x31_0" xmlns="http://www.w3.org/2000/svg" xmlns:xlink="http://www.w3.org/1999/xlink" x="0px" y="0px"
	 viewBox="0 0 512 512" style="enable-background:new 0 0 512 512;" xml:space="preserve">
<style type="text/css">
	.st0{fill:#374149;}
</style>
<g>
	<path class="st0" d="M256.375,0C114.989-0.206,0.207,114.242,0,255.629C-0.203,397.015,114.242,511.793,255.629,512
		C397.011,512.203,511.797,397.758,512,256.371C512.206,114.985,397.758,0.207,256.375,0z M256.282,64
		C362.148,64.153,448.156,150.41,448,256.278C447.847,362.145,361.59,448.152,255.722,448C149.852,447.847,63.848,361.59,64,255.722
		C64.157,149.855,150.41,63.848,256.282,64z"/>
	<path class="st0" d="M135.774,298.492l69.668,0.102c4.324,0.008,7.824,3.52,7.82,7.844l-0.09,59.722
		c-0.012,9.82,7.934,17.789,17.754,17.805l49.778,0.07c9.82,0.015,17.789-7.934,17.805-17.75l0.086-59.722
		c0.004-4.328,3.52-7.828,7.848-7.82l59.718,0.086c9.82,0.012,17.793-7.934,17.805-17.754l0.074-49.778
		c0.011-9.816-7.938-17.789-17.758-17.805l-59.718-0.086c-4.328-0.004-7.828-3.52-7.824-7.844l0.086-59.722
		c0.016-9.817-7.93-17.789-17.75-17.805l-49.778-0.07c-9.82-0.015-17.789,7.934-17.805,17.75l-0.086,59.722
		c-0.004,4.328-3.52,7.828-7.844,7.824l-69.668-0.102c-4.328-0.008-7.836,3.492-7.839,7.821l-0.102,69.668
		C127.946,294.973,131.446,298.488,135.774,298.492z"/>
</g>
</svg>
